<mxfile host="app.diagrams.net" agent="Mozilla/5.0 (Windows NT 10.0; Win64; x64) AppleWebKit/537.36 (KHTML, like Gecko) Chrome/135.0.0.0 Safari/537.36" version="26.1.0">
  <diagram id="7gcUSTIZ7YSJ5vT40chW" name="Page-1">
    <mxGraphModel dx="1100" dy="1559" grid="1" gridSize="10" guides="1" tooltips="1" connect="1" arrows="1" fold="1" page="1" pageScale="1" pageWidth="1169" pageHeight="827" math="0" shadow="0">
      <root>
        <mxCell id="0" />
        <mxCell id="1" parent="0" />
        <mxCell id="pg69pMdYcmg80Zj4JfqQ-16" style="edgeStyle=none;curved=1;rounded=0;orthogonalLoop=1;jettySize=auto;html=1;fontSize=12;startSize=8;endSize=8;" edge="1" parent="1" source="pg69pMdYcmg80Zj4JfqQ-1" target="pg69pMdYcmg80Zj4JfqQ-2">
          <mxGeometry relative="1" as="geometry" />
        </mxCell>
        <mxCell id="pg69pMdYcmg80Zj4JfqQ-1" value="Front end" style="image;aspect=fixed;html=1;points=[];align=center;fontSize=12;image=img/lib/azure2/app_services/App_Services.svg;" vertex="1" parent="1">
          <mxGeometry x="120" y="192" width="68" height="68" as="geometry" />
        </mxCell>
        <mxCell id="pg69pMdYcmg80Zj4JfqQ-27" style="edgeStyle=none;curved=1;rounded=0;orthogonalLoop=1;jettySize=auto;html=1;fontSize=12;startSize=8;endSize=8;" edge="1" parent="1" source="pg69pMdYcmg80Zj4JfqQ-2" target="pg69pMdYcmg80Zj4JfqQ-23">
          <mxGeometry relative="1" as="geometry" />
        </mxCell>
        <mxCell id="pg69pMdYcmg80Zj4JfqQ-2" value="Upload&amp;nbsp;&lt;br&gt;training material" style="image;aspect=fixed;html=1;points=[];align=center;fontSize=12;image=img/lib/azure2/storage/Storage_Accounts.svg;" vertex="1" parent="1">
          <mxGeometry x="240" y="200" width="65" height="52" as="geometry" />
        </mxCell>
        <mxCell id="pg69pMdYcmg80Zj4JfqQ-33" style="edgeStyle=none;curved=1;rounded=0;orthogonalLoop=1;jettySize=auto;html=1;fontSize=12;startSize=8;endSize=8;" edge="1" parent="1" source="pg69pMdYcmg80Zj4JfqQ-3" target="pg69pMdYcmg80Zj4JfqQ-5">
          <mxGeometry relative="1" as="geometry" />
        </mxCell>
        <mxCell id="pg69pMdYcmg80Zj4JfqQ-3" value="Blob Trigger function" style="shape=image;verticalLabelPosition=bottom;labelBackgroundColor=#ffffff;verticalAlign=top;aspect=fixed;imageAspect=0;image=data:image/svg+xml,PHN2ZyB4bWxuczpkYz0iaHR0cDovL3B1cmwub3JnL2RjL2VsZW1lbnRzLzEuMS8iIHhtbG5zOmNjPSJodHRwOi8vY3JlYXRpdmVjb21tb25zLm9yZy9ucyMiIHhtbG5zOnJkZj0iaHR0cDovL3d3dy53My5vcmcvMTk5OS8wMi8yMi1yZGYtc3ludGF4LW5zIyIgeG1sbnM6c3ZnPSJodHRwOi8vd3d3LnczLm9yZy8yMDAwL3N2ZyIgeG1sbnM9Imh0dHA6Ly93d3cudzMub3JnLzIwMDAvc3ZnIiB4bWxuczpzb2RpcG9kaT0iaHR0cDovL3NvZGlwb2RpLnNvdXJjZWZvcmdlLm5ldC9EVEQvc29kaXBvZGktMC5kdGQiIHhtbG5zOmlua3NjYXBlPSJodHRwOi8vd3d3Lmlua3NjYXBlLm9yZy9uYW1lc3BhY2VzL2lua3NjYXBlIiB2ZXJzaW9uPSIxLjEiIGlkPSJzdmcyNjE4OCIgeD0iMHB4IiB5PSIwcHgiIHZpZXdCb3g9IjAgMCA1Ny4zMDk5MyA1Mi44MTk5OTkiIHhtbDpzcGFjZT0icHJlc2VydmUiIHNvZGlwb2RpOmRvY25hbWU9ImF6dXJlX2Z1bmN0aW9ucy5zdmciIHdpZHRoPSI1Ny4zMDk5MjkiIGhlaWdodD0iNTIuODIiIGlua3NjYXBlOnZlcnNpb249IjAuOTIuMyAoMjQwNTU0NiwgMjAxOC0wMy0xMSkiPjxtZXRhZGF0YSBpZD0ibWV0YWRhdGE0MTk3MTciPjxyZGY6UkRGPjxjYzpXb3JrIHJkZjphYm91dD0iIj48ZGM6Zm9ybWF0PmltYWdlL3N2Zyt4bWw8L2RjOmZvcm1hdD48ZGM6dHlwZSByZGY6cmVzb3VyY2U9Imh0dHA6Ly9wdXJsLm9yZy9kYy9kY21pdHlwZS9TdGlsbEltYWdlIi8+PGRjOnRpdGxlLz48L2NjOldvcms+PC9yZGY6UkRGPjwvbWV0YWRhdGE+PGRlZnMgaWQ9ImRlZnM0MTk3MTUiPiYjeGE7CSYjeGE7CSYjeGE7JiN4YTsJCSYjeGE7CQkmI3hhOwkJJiN4YTsJCSYjeGE7CQkmI3hhOwkmI3hhOwkJCSYjeGE7CQkJJiN4YTsJCQkmI3hhOwkJCQkmI3hhOwkJJiN4YTsJCQkmI3hhOwkJCSYjeGE7CQkJJiN4YTsJCSYjeGE7CQkJJiN4YTsJCQkmI3hhOwkJCSYjeGE7CQkmI3hhOwkJCSYjeGE7CQkJJiN4YTsJCQkmI3hhOwkJPC9kZWZzPiYjeGE7PGZpbHRlciBpZD0iZmlsdGVyXzIiPiYjeGE7CTxmZUdhdXNzaWFuQmx1ciBpZD0iZmVHYXVzc2lhbkJsdXIyNjE0NSIgc3RkRGV2aWF0aW9uPSIyIi8+JiN4YTs8L2ZpbHRlcj4mI3hhOzxzb2RpcG9kaTpuYW1lZHZpZXcgYm9yZGVyY29sb3I9IiM2NjY2NjYiIGJvcmRlcm9wYWNpdHk9IjEiIGZpdC1tYXJnaW4tYm90dG9tPSIwIiBmaXQtbWFyZ2luLWxlZnQ9IjAiIGZpdC1tYXJnaW4tcmlnaHQ9IjAiIGZpdC1tYXJnaW4tdG9wPSIwIiBncmlkdG9sZXJhbmNlPSIxMCIgZ3VpZGV0b2xlcmFuY2U9IjEwIiBpZD0ibmFtZWR2aWV3MjYxOTAiIGlua3NjYXBlOmN1cnJlbnQtbGF5ZXI9InN2ZzI2MTg4IiBpbmtzY2FwZTpjeD0iOS4zODYxNjQ5IiBpbmtzY2FwZTpjeT0iMTguMTA2MzA2IiBpbmtzY2FwZTpwYWdlb3BhY2l0eT0iMCIgaW5rc2NhcGU6cGFnZXNoYWRvdz0iMiIgaW5rc2NhcGU6d2luZG93LWhlaWdodD0iMTAxNyIgaW5rc2NhcGU6d2luZG93LW1heGltaXplZD0iMSIgaW5rc2NhcGU6d2luZG93LXdpZHRoPSIxOTIwIiBpbmtzY2FwZTp3aW5kb3cteD0iLTgiIGlua3NjYXBlOndpbmRvdy15PSItOCIgaW5rc2NhcGU6em9vbT0iOS4wMzkyMDQ2IiBvYmplY3R0b2xlcmFuY2U9IjEwIiBwYWdlY29sb3I9IiNmZmZmZmYiIHNob3dncmlkPSJmYWxzZSI+JiN4YTsJPC9zb2RpcG9kaTpuYW1lZHZpZXc+JiN4YTs8cGF0aCBkPSJtIDU2LjkzNzkxNCwyNi43NjYyIGMgMC41NCwtMC41MyAwLjQ1LC0xLjUyIDAsLTIuMDYgbCAtMi43NywtMi43NyAtMTIuMzYsLTEyIGMgLTAuNTMsLTAuNTMgLTEuMzQsLTAuNTMgLTEuOTYsMCAtMC41NCwwLjU0IC0wLjcyLDEuNTMgMCwyLjA2IGwgMTIuOTcsMTIuNzEgYyAwLjU0LDAuNTQgMC41NCwxLjUzIDAsMi4wNiBsIC0xMy4yNCwxMy4xNiBjIC0wLjU0LDAuNTQgLTAuNTQsMS41MiAwLDIuMDYgMC41MywwLjU0IDEuNTIsMC40NSAxLjk3LDAgbCAxMi4yNiwtMTIuMTcgYyAwLDAgMCwwIDAuMDksLTAuMDkgeiIgc3R5bGU9ImNsaXAtcnVsZTpldmVub2RkO2ZpbGw6IzM5OTljNjtmaWxsLXJ1bGU6ZXZlbm9kZCIgaW5rc2NhcGU6Y29ubmVjdG9yLWN1cnZhdHVyZT0iMCIgaWQ9InBhdGgyNjE1OCIvPjxwYXRoIGQ9Im0gMC4zNzIwMTM5LDI2Ljc2NjIgYyAtMC41NCwtMC41MyAtMC40NSwtMS41MiAwLC0yLjA2IGwgMi43NywtMi43NyAxMi4zNTAwMDAxLC0xMiBjIDAuNTQsLTAuNTMgMS4zNSwtMC41MyAxLjk3LDAgMC41NCwwLjU0IDAuNzIsMS41MyAwLDIuMDYgbCAtMTIuNzEwMDAwMSwxMi43MSBjIC0wLjUzLDAuNTQgLTAuNTMsMS41MyAwLDIuMDYgbCAxMi45ODAwMDAxLDEzLjE2IGMgMC41NCwwLjU0IDAuNTQsMS41MiAwLDIuMDYgLTAuNTMsMC41NCAtMS41MiwwLjQ1IC0xLjk3LDAgTCAzLjIzMjAxMzksMjkuOTk2MiBjIDAsMCAwLDAgLTAuMDksLTAuMDkgeiIgc3R5bGU9ImNsaXAtcnVsZTpldmVub2RkO2ZpbGw6IzM5OTljNjtmaWxsLXJ1bGU6ZXZlbm9kZCIgaW5rc2NhcGU6Y29ubmVjdG9yLWN1cnZhdHVyZT0iMCIgaWQ9InBhdGgyNjE2NiIvPjxwYXRoIGQ9Im0gNDIuNjE1MDE0LDAgaCAtMTcuNDUgbCAtOS40LDI2LjUgMTEuNDYsMC4wOSAtOC45NSwyNi4yMyAyNC43LC0zNSBoIC0xMS45OSB6IiBzdHlsZT0iY2xpcC1ydWxlOmV2ZW5vZGQ7ZmlsbDojZmNkMTE2O2ZpbGwtcnVsZTpldmVub2RkIiBpbmtzY2FwZTpjb25uZWN0b3ItY3VydmF0dXJlPSIwIiBpZD0icGF0aDI2MTc0Ii8+PHBhdGggZD0iTSAzMC45ODEzMTQsMTcuODIgNDIuNjIxMzE0LDAgaCAtOS4xMyBsIC05LjY3LDIyLjAyIDExLjQ2LDAuMDkgLTE3LjAxLDMwLjcxIDI0LjcxLC0zNSB6IiBzdHlsZT0iY2xpcC1ydWxlOmV2ZW5vZGQ7ZmlsbDojZmY4YzAwO2ZpbGwtb3BhY2l0eTowLjM7ZmlsbC1ydWxlOmV2ZW5vZGQiIGlua3NjYXBlOmNvbm5lY3Rvci1jdXJ2YXR1cmU9IjAiIGlkPSJwYXRoMjYxODIiLz4mI3hhOzwvc3ZnPg==;" vertex="1" parent="1">
          <mxGeometry x="483.47" y="-18.5" width="64.53" height="60" as="geometry" />
        </mxCell>
        <mxCell id="pg69pMdYcmg80Zj4JfqQ-4" value="Store results" style="image;aspect=fixed;html=1;points=[];align=center;fontSize=12;image=img/lib/azure2/storage/Storage_Accounts.svg;" vertex="1" parent="1">
          <mxGeometry x="480" y="195.5" width="65" height="52" as="geometry" />
        </mxCell>
        <mxCell id="pg69pMdYcmg80Zj4JfqQ-34" style="edgeStyle=none;curved=1;rounded=0;orthogonalLoop=1;jettySize=auto;html=1;fontSize=12;startSize=8;endSize=8;" edge="1" parent="1" source="pg69pMdYcmg80Zj4JfqQ-5" target="pg69pMdYcmg80Zj4JfqQ-4">
          <mxGeometry relative="1" as="geometry" />
        </mxCell>
        <mxCell id="pg69pMdYcmg80Zj4JfqQ-5" value="Analyze with LLM" style="image;aspect=fixed;html=1;points=[];align=center;fontSize=12;image=img/lib/azure2/ai_machine_learning/Azure_OpenAI.svg;" vertex="1" parent="1">
          <mxGeometry x="480" y="85.5" width="68" height="68" as="geometry" />
        </mxCell>
        <mxCell id="pg69pMdYcmg80Zj4JfqQ-37" style="edgeStyle=none;curved=1;rounded=0;orthogonalLoop=1;jettySize=auto;html=1;fontSize=12;startSize=8;endSize=8;" edge="1" parent="1" source="pg69pMdYcmg80Zj4JfqQ-6" target="pg69pMdYcmg80Zj4JfqQ-7">
          <mxGeometry relative="1" as="geometry" />
        </mxCell>
        <mxCell id="pg69pMdYcmg80Zj4JfqQ-6" value="Speech Synthesis" style="image;aspect=fixed;html=1;points=[];align=center;fontSize=12;image=img/lib/azure2/ai_machine_learning/Speech_Services.svg;" vertex="1" parent="1">
          <mxGeometry x="600" y="85.5" width="68" height="68" as="geometry" />
        </mxCell>
        <mxCell id="pg69pMdYcmg80Zj4JfqQ-45" value="" style="edgeStyle=none;curved=1;rounded=0;orthogonalLoop=1;jettySize=auto;html=1;fontSize=12;startSize=8;endSize=8;" edge="1" parent="1" source="pg69pMdYcmg80Zj4JfqQ-7" target="pg69pMdYcmg80Zj4JfqQ-41">
          <mxGeometry relative="1" as="geometry" />
        </mxCell>
        <mxCell id="pg69pMdYcmg80Zj4JfqQ-7" value="Store" style="image;aspect=fixed;html=1;points=[];align=center;fontSize=12;image=img/lib/azure2/storage/Storage_Accounts.svg;" vertex="1" parent="1">
          <mxGeometry x="601.5" y="-14.5" width="65" height="52" as="geometry" />
        </mxCell>
        <mxCell id="pg69pMdYcmg80Zj4JfqQ-36" style="edgeStyle=none;curved=1;rounded=0;orthogonalLoop=1;jettySize=auto;html=1;fontSize=12;startSize=8;endSize=8;" edge="1" parent="1" source="pg69pMdYcmg80Zj4JfqQ-8" target="pg69pMdYcmg80Zj4JfqQ-6">
          <mxGeometry relative="1" as="geometry" />
        </mxCell>
        <mxCell id="pg69pMdYcmg80Zj4JfqQ-8" value="Format for Speech &#xa;Service" style="shape=image;verticalLabelPosition=bottom;labelBackgroundColor=#ffffff;verticalAlign=top;aspect=fixed;imageAspect=0;image=data:image/svg+xml,PHN2ZyB4bWxuczpkYz0iaHR0cDovL3B1cmwub3JnL2RjL2VsZW1lbnRzLzEuMS8iIHhtbG5zOmNjPSJodHRwOi8vY3JlYXRpdmVjb21tb25zLm9yZy9ucyMiIHhtbG5zOnJkZj0iaHR0cDovL3d3dy53My5vcmcvMTk5OS8wMi8yMi1yZGYtc3ludGF4LW5zIyIgeG1sbnM6c3ZnPSJodHRwOi8vd3d3LnczLm9yZy8yMDAwL3N2ZyIgeG1sbnM9Imh0dHA6Ly93d3cudzMub3JnLzIwMDAvc3ZnIiB4bWxuczpzb2RpcG9kaT0iaHR0cDovL3NvZGlwb2RpLnNvdXJjZWZvcmdlLm5ldC9EVEQvc29kaXBvZGktMC5kdGQiIHhtbG5zOmlua3NjYXBlPSJodHRwOi8vd3d3Lmlua3NjYXBlLm9yZy9uYW1lc3BhY2VzL2lua3NjYXBlIiB2ZXJzaW9uPSIxLjEiIGlkPSJzdmcyNjE4OCIgeD0iMHB4IiB5PSIwcHgiIHZpZXdCb3g9IjAgMCA1Ny4zMDk5MyA1Mi44MTk5OTkiIHhtbDpzcGFjZT0icHJlc2VydmUiIHNvZGlwb2RpOmRvY25hbWU9ImF6dXJlX2Z1bmN0aW9ucy5zdmciIHdpZHRoPSI1Ny4zMDk5MjkiIGhlaWdodD0iNTIuODIiIGlua3NjYXBlOnZlcnNpb249IjAuOTIuMyAoMjQwNTU0NiwgMjAxOC0wMy0xMSkiPjxtZXRhZGF0YSBpZD0ibWV0YWRhdGE0MTk3MTciPjxyZGY6UkRGPjxjYzpXb3JrIHJkZjphYm91dD0iIj48ZGM6Zm9ybWF0PmltYWdlL3N2Zyt4bWw8L2RjOmZvcm1hdD48ZGM6dHlwZSByZGY6cmVzb3VyY2U9Imh0dHA6Ly9wdXJsLm9yZy9kYy9kY21pdHlwZS9TdGlsbEltYWdlIi8+PGRjOnRpdGxlLz48L2NjOldvcms+PC9yZGY6UkRGPjwvbWV0YWRhdGE+PGRlZnMgaWQ9ImRlZnM0MTk3MTUiPiYjeGE7CSYjeGE7CSYjeGE7JiN4YTsJCSYjeGE7CQkmI3hhOwkJJiN4YTsJCSYjeGE7CQkmI3hhOwkmI3hhOwkJCSYjeGE7CQkJJiN4YTsJCQkmI3hhOwkJCQkmI3hhOwkJJiN4YTsJCQkmI3hhOwkJCSYjeGE7CQkJJiN4YTsJCSYjeGE7CQkJJiN4YTsJCQkmI3hhOwkJCSYjeGE7CQkmI3hhOwkJCSYjeGE7CQkJJiN4YTsJCQkmI3hhOwkJPC9kZWZzPiYjeGE7PGZpbHRlciBpZD0iZmlsdGVyXzIiPiYjeGE7CTxmZUdhdXNzaWFuQmx1ciBpZD0iZmVHYXVzc2lhbkJsdXIyNjE0NSIgc3RkRGV2aWF0aW9uPSIyIi8+JiN4YTs8L2ZpbHRlcj4mI3hhOzxzb2RpcG9kaTpuYW1lZHZpZXcgYm9yZGVyY29sb3I9IiM2NjY2NjYiIGJvcmRlcm9wYWNpdHk9IjEiIGZpdC1tYXJnaW4tYm90dG9tPSIwIiBmaXQtbWFyZ2luLWxlZnQ9IjAiIGZpdC1tYXJnaW4tcmlnaHQ9IjAiIGZpdC1tYXJnaW4tdG9wPSIwIiBncmlkdG9sZXJhbmNlPSIxMCIgZ3VpZGV0b2xlcmFuY2U9IjEwIiBpZD0ibmFtZWR2aWV3MjYxOTAiIGlua3NjYXBlOmN1cnJlbnQtbGF5ZXI9InN2ZzI2MTg4IiBpbmtzY2FwZTpjeD0iOS4zODYxNjQ5IiBpbmtzY2FwZTpjeT0iMTguMTA2MzA2IiBpbmtzY2FwZTpwYWdlb3BhY2l0eT0iMCIgaW5rc2NhcGU6cGFnZXNoYWRvdz0iMiIgaW5rc2NhcGU6d2luZG93LWhlaWdodD0iMTAxNyIgaW5rc2NhcGU6d2luZG93LW1heGltaXplZD0iMSIgaW5rc2NhcGU6d2luZG93LXdpZHRoPSIxOTIwIiBpbmtzY2FwZTp3aW5kb3cteD0iLTgiIGlua3NjYXBlOndpbmRvdy15PSItOCIgaW5rc2NhcGU6em9vbT0iOS4wMzkyMDQ2IiBvYmplY3R0b2xlcmFuY2U9IjEwIiBwYWdlY29sb3I9IiNmZmZmZmYiIHNob3dncmlkPSJmYWxzZSI+JiN4YTsJPC9zb2RpcG9kaTpuYW1lZHZpZXc+JiN4YTs8cGF0aCBkPSJtIDU2LjkzNzkxNCwyNi43NjYyIGMgMC41NCwtMC41MyAwLjQ1LC0xLjUyIDAsLTIuMDYgbCAtMi43NywtMi43NyAtMTIuMzYsLTEyIGMgLTAuNTMsLTAuNTMgLTEuMzQsLTAuNTMgLTEuOTYsMCAtMC41NCwwLjU0IC0wLjcyLDEuNTMgMCwyLjA2IGwgMTIuOTcsMTIuNzEgYyAwLjU0LDAuNTQgMC41NCwxLjUzIDAsMi4wNiBsIC0xMy4yNCwxMy4xNiBjIC0wLjU0LDAuNTQgLTAuNTQsMS41MiAwLDIuMDYgMC41MywwLjU0IDEuNTIsMC40NSAxLjk3LDAgbCAxMi4yNiwtMTIuMTcgYyAwLDAgMCwwIDAuMDksLTAuMDkgeiIgc3R5bGU9ImNsaXAtcnVsZTpldmVub2RkO2ZpbGw6IzM5OTljNjtmaWxsLXJ1bGU6ZXZlbm9kZCIgaW5rc2NhcGU6Y29ubmVjdG9yLWN1cnZhdHVyZT0iMCIgaWQ9InBhdGgyNjE1OCIvPjxwYXRoIGQ9Im0gMC4zNzIwMTM5LDI2Ljc2NjIgYyAtMC41NCwtMC41MyAtMC40NSwtMS41MiAwLC0yLjA2IGwgMi43NywtMi43NyAxMi4zNTAwMDAxLC0xMiBjIDAuNTQsLTAuNTMgMS4zNSwtMC41MyAxLjk3LDAgMC41NCwwLjU0IDAuNzIsMS41MyAwLDIuMDYgbCAtMTIuNzEwMDAwMSwxMi43MSBjIC0wLjUzLDAuNTQgLTAuNTMsMS41MyAwLDIuMDYgbCAxMi45ODAwMDAxLDEzLjE2IGMgMC41NCwwLjU0IDAuNTQsMS41MiAwLDIuMDYgLTAuNTMsMC41NCAtMS41MiwwLjQ1IC0xLjk3LDAgTCAzLjIzMjAxMzksMjkuOTk2MiBjIDAsMCAwLDAgLTAuMDksLTAuMDkgeiIgc3R5bGU9ImNsaXAtcnVsZTpldmVub2RkO2ZpbGw6IzM5OTljNjtmaWxsLXJ1bGU6ZXZlbm9kZCIgaW5rc2NhcGU6Y29ubmVjdG9yLWN1cnZhdHVyZT0iMCIgaWQ9InBhdGgyNjE2NiIvPjxwYXRoIGQ9Im0gNDIuNjE1MDE0LDAgaCAtMTcuNDUgbCAtOS40LDI2LjUgMTEuNDYsMC4wOSAtOC45NSwyNi4yMyAyNC43LC0zNSBoIC0xMS45OSB6IiBzdHlsZT0iY2xpcC1ydWxlOmV2ZW5vZGQ7ZmlsbDojZmNkMTE2O2ZpbGwtcnVsZTpldmVub2RkIiBpbmtzY2FwZTpjb25uZWN0b3ItY3VydmF0dXJlPSIwIiBpZD0icGF0aDI2MTc0Ii8+PHBhdGggZD0iTSAzMC45ODEzMTQsMTcuODIgNDIuNjIxMzE0LDAgaCAtOS4xMyBsIC05LjY3LDIyLjAyIDExLjQ2LDAuMDkgLTE3LjAxLDMwLjcxIDI0LjcxLC0zNSB6IiBzdHlsZT0iY2xpcC1ydWxlOmV2ZW5vZGQ7ZmlsbDojZmY4YzAwO2ZpbGwtb3BhY2l0eTowLjM7ZmlsbC1ydWxlOmV2ZW5vZGQiIGlua3NjYXBlOmNvbm5lY3Rvci1jdXJ2YXR1cmU9IjAiIGlkPSJwYXRoMjYxODIiLz4mI3hhOzwvc3ZnPg==;" vertex="1" parent="1">
          <mxGeometry x="600" y="187.5" width="64.53" height="60" as="geometry" />
        </mxCell>
        <mxCell id="pg69pMdYcmg80Zj4JfqQ-39" style="edgeStyle=none;curved=1;rounded=0;orthogonalLoop=1;jettySize=auto;html=1;fontSize=12;startSize=8;endSize=8;" edge="1" parent="1" source="pg69pMdYcmg80Zj4JfqQ-9" target="pg69pMdYcmg80Zj4JfqQ-15">
          <mxGeometry relative="1" as="geometry" />
        </mxCell>
        <mxCell id="pg69pMdYcmg80Zj4JfqQ-9" value="Create &#xa;communication emails" style="shape=image;verticalLabelPosition=bottom;labelBackgroundColor=#ffffff;verticalAlign=top;aspect=fixed;imageAspect=0;image=data:image/svg+xml,PHN2ZyB4bWxuczpkYz0iaHR0cDovL3B1cmwub3JnL2RjL2VsZW1lbnRzLzEuMS8iIHhtbG5zOmNjPSJodHRwOi8vY3JlYXRpdmVjb21tb25zLm9yZy9ucyMiIHhtbG5zOnJkZj0iaHR0cDovL3d3dy53My5vcmcvMTk5OS8wMi8yMi1yZGYtc3ludGF4LW5zIyIgeG1sbnM6c3ZnPSJodHRwOi8vd3d3LnczLm9yZy8yMDAwL3N2ZyIgeG1sbnM9Imh0dHA6Ly93d3cudzMub3JnLzIwMDAvc3ZnIiB4bWxuczpzb2RpcG9kaT0iaHR0cDovL3NvZGlwb2RpLnNvdXJjZWZvcmdlLm5ldC9EVEQvc29kaXBvZGktMC5kdGQiIHhtbG5zOmlua3NjYXBlPSJodHRwOi8vd3d3Lmlua3NjYXBlLm9yZy9uYW1lc3BhY2VzL2lua3NjYXBlIiB2ZXJzaW9uPSIxLjEiIGlkPSJzdmcyNjE4OCIgeD0iMHB4IiB5PSIwcHgiIHZpZXdCb3g9IjAgMCA1Ny4zMDk5MyA1Mi44MTk5OTkiIHhtbDpzcGFjZT0icHJlc2VydmUiIHNvZGlwb2RpOmRvY25hbWU9ImF6dXJlX2Z1bmN0aW9ucy5zdmciIHdpZHRoPSI1Ny4zMDk5MjkiIGhlaWdodD0iNTIuODIiIGlua3NjYXBlOnZlcnNpb249IjAuOTIuMyAoMjQwNTU0NiwgMjAxOC0wMy0xMSkiPjxtZXRhZGF0YSBpZD0ibWV0YWRhdGE0MTk3MTciPjxyZGY6UkRGPjxjYzpXb3JrIHJkZjphYm91dD0iIj48ZGM6Zm9ybWF0PmltYWdlL3N2Zyt4bWw8L2RjOmZvcm1hdD48ZGM6dHlwZSByZGY6cmVzb3VyY2U9Imh0dHA6Ly9wdXJsLm9yZy9kYy9kY21pdHlwZS9TdGlsbEltYWdlIi8+PGRjOnRpdGxlLz48L2NjOldvcms+PC9yZGY6UkRGPjwvbWV0YWRhdGE+PGRlZnMgaWQ9ImRlZnM0MTk3MTUiPiYjeGE7CSYjeGE7CSYjeGE7JiN4YTsJCSYjeGE7CQkmI3hhOwkJJiN4YTsJCSYjeGE7CQkmI3hhOwkmI3hhOwkJCSYjeGE7CQkJJiN4YTsJCQkmI3hhOwkJCQkmI3hhOwkJJiN4YTsJCQkmI3hhOwkJCSYjeGE7CQkJJiN4YTsJCSYjeGE7CQkJJiN4YTsJCQkmI3hhOwkJCSYjeGE7CQkmI3hhOwkJCSYjeGE7CQkJJiN4YTsJCQkmI3hhOwkJPC9kZWZzPiYjeGE7PGZpbHRlciBpZD0iZmlsdGVyXzIiPiYjeGE7CTxmZUdhdXNzaWFuQmx1ciBpZD0iZmVHYXVzc2lhbkJsdXIyNjE0NSIgc3RkRGV2aWF0aW9uPSIyIi8+JiN4YTs8L2ZpbHRlcj4mI3hhOzxzb2RpcG9kaTpuYW1lZHZpZXcgYm9yZGVyY29sb3I9IiM2NjY2NjYiIGJvcmRlcm9wYWNpdHk9IjEiIGZpdC1tYXJnaW4tYm90dG9tPSIwIiBmaXQtbWFyZ2luLWxlZnQ9IjAiIGZpdC1tYXJnaW4tcmlnaHQ9IjAiIGZpdC1tYXJnaW4tdG9wPSIwIiBncmlkdG9sZXJhbmNlPSIxMCIgZ3VpZGV0b2xlcmFuY2U9IjEwIiBpZD0ibmFtZWR2aWV3MjYxOTAiIGlua3NjYXBlOmN1cnJlbnQtbGF5ZXI9InN2ZzI2MTg4IiBpbmtzY2FwZTpjeD0iOS4zODYxNjQ5IiBpbmtzY2FwZTpjeT0iMTguMTA2MzA2IiBpbmtzY2FwZTpwYWdlb3BhY2l0eT0iMCIgaW5rc2NhcGU6cGFnZXNoYWRvdz0iMiIgaW5rc2NhcGU6d2luZG93LWhlaWdodD0iMTAxNyIgaW5rc2NhcGU6d2luZG93LW1heGltaXplZD0iMSIgaW5rc2NhcGU6d2luZG93LXdpZHRoPSIxOTIwIiBpbmtzY2FwZTp3aW5kb3cteD0iLTgiIGlua3NjYXBlOndpbmRvdy15PSItOCIgaW5rc2NhcGU6em9vbT0iOS4wMzkyMDQ2IiBvYmplY3R0b2xlcmFuY2U9IjEwIiBwYWdlY29sb3I9IiNmZmZmZmYiIHNob3dncmlkPSJmYWxzZSI+JiN4YTsJPC9zb2RpcG9kaTpuYW1lZHZpZXc+JiN4YTs8cGF0aCBkPSJtIDU2LjkzNzkxNCwyNi43NjYyIGMgMC41NCwtMC41MyAwLjQ1LC0xLjUyIDAsLTIuMDYgbCAtMi43NywtMi43NyAtMTIuMzYsLTEyIGMgLTAuNTMsLTAuNTMgLTEuMzQsLTAuNTMgLTEuOTYsMCAtMC41NCwwLjU0IC0wLjcyLDEuNTMgMCwyLjA2IGwgMTIuOTcsMTIuNzEgYyAwLjU0LDAuNTQgMC41NCwxLjUzIDAsMi4wNiBsIC0xMy4yNCwxMy4xNiBjIC0wLjU0LDAuNTQgLTAuNTQsMS41MiAwLDIuMDYgMC41MywwLjU0IDEuNTIsMC40NSAxLjk3LDAgbCAxMi4yNiwtMTIuMTcgYyAwLDAgMCwwIDAuMDksLTAuMDkgeiIgc3R5bGU9ImNsaXAtcnVsZTpldmVub2RkO2ZpbGw6IzM5OTljNjtmaWxsLXJ1bGU6ZXZlbm9kZCIgaW5rc2NhcGU6Y29ubmVjdG9yLWN1cnZhdHVyZT0iMCIgaWQ9InBhdGgyNjE1OCIvPjxwYXRoIGQ9Im0gMC4zNzIwMTM5LDI2Ljc2NjIgYyAtMC41NCwtMC41MyAtMC40NSwtMS41MiAwLC0yLjA2IGwgMi43NywtMi43NyAxMi4zNTAwMDAxLC0xMiBjIDAuNTQsLTAuNTMgMS4zNSwtMC41MyAxLjk3LDAgMC41NCwwLjU0IDAuNzIsMS41MyAwLDIuMDYgbCAtMTIuNzEwMDAwMSwxMi43MSBjIC0wLjUzLDAuNTQgLTAuNTMsMS41MyAwLDIuMDYgbCAxMi45ODAwMDAxLDEzLjE2IGMgMC41NCwwLjU0IDAuNTQsMS41MiAwLDIuMDYgLTAuNTMsMC41NCAtMS41MiwwLjQ1IC0xLjk3LDAgTCAzLjIzMjAxMzksMjkuOTk2MiBjIDAsMCAwLDAgLTAuMDksLTAuMDkgeiIgc3R5bGU9ImNsaXAtcnVsZTpldmVub2RkO2ZpbGw6IzM5OTljNjtmaWxsLXJ1bGU6ZXZlbm9kZCIgaW5rc2NhcGU6Y29ubmVjdG9yLWN1cnZhdHVyZT0iMCIgaWQ9InBhdGgyNjE2NiIvPjxwYXRoIGQ9Im0gNDIuNjE1MDE0LDAgaCAtMTcuNDUgbCAtOS40LDI2LjUgMTEuNDYsMC4wOSAtOC45NSwyNi4yMyAyNC43LC0zNSBoIC0xMS45OSB6IiBzdHlsZT0iY2xpcC1ydWxlOmV2ZW5vZGQ7ZmlsbDojZmNkMTE2O2ZpbGwtcnVsZTpldmVub2RkIiBpbmtzY2FwZTpjb25uZWN0b3ItY3VydmF0dXJlPSIwIiBpZD0icGF0aDI2MTc0Ii8+PHBhdGggZD0iTSAzMC45ODEzMTQsMTcuODIgNDIuNjIxMzE0LDAgaCAtOS4xMyBsIC05LjY3LDIyLjAyIDExLjQ2LDAuMDkgLTE3LjAxLDMwLjcxIDI0LjcxLC0zNSB6IiBzdHlsZT0iY2xpcC1ydWxlOmV2ZW5vZGQ7ZmlsbDojZmY4YzAwO2ZpbGwtb3BhY2l0eTowLjM7ZmlsbC1ydWxlOmV2ZW5vZGQiIGlua3NjYXBlOmNvbm5lY3Rvci1jdXJ2YXR1cmU9IjAiIGlkPSJwYXRoMjYxODIiLz4mI3hhOzwvc3ZnPg==;" vertex="1" parent="1">
          <mxGeometry x="720" y="187.5" width="64.53" height="60" as="geometry" />
        </mxCell>
        <mxCell id="pg69pMdYcmg80Zj4JfqQ-15" value="" style="image;aspect=fixed;html=1;points=[];align=center;fontSize=12;image=img/lib/azure2/other/Azure_Communication_Services.svg;" vertex="1" parent="1">
          <mxGeometry x="720" y="300.5" width="68" height="50" as="geometry" />
        </mxCell>
        <mxCell id="pg69pMdYcmg80Zj4JfqQ-17" value="" style="image;aspect=fixed;html=1;points=[];align=center;fontSize=12;image=img/lib/azure2/app_services/Search_Services.svg;" vertex="1" parent="1">
          <mxGeometry x="351.34000000000003" y="450" width="81.84" height="59.12" as="geometry" />
        </mxCell>
        <mxCell id="pg69pMdYcmg80Zj4JfqQ-19" value="" style="endArrow=classic;startArrow=classic;html=1;rounded=0;fontSize=12;startSize=8;endSize=8;curved=1;entryX=0.571;entryY=1.024;entryDx=0;entryDy=0;entryPerimeter=0;exitX=-0.018;exitY=0.424;exitDx=0;exitDy=0;exitPerimeter=0;" edge="1" parent="1" source="pg69pMdYcmg80Zj4JfqQ-20" target="pg69pMdYcmg80Zj4JfqQ-1">
          <mxGeometry width="50" height="50" relative="1" as="geometry">
            <mxPoint x="350" y="310" as="sourcePoint" />
            <mxPoint x="530" y="200" as="targetPoint" />
          </mxGeometry>
        </mxCell>
        <mxCell id="pg69pMdYcmg80Zj4JfqQ-20" value="" style="image;aspect=fixed;html=1;points=[];align=center;fontSize=12;image=img/lib/azure2/ai_machine_learning/Azure_OpenAI.svg;" vertex="1" parent="1">
          <mxGeometry x="360" y="343" width="68" height="68" as="geometry" />
        </mxCell>
        <mxCell id="pg69pMdYcmg80Zj4JfqQ-29" style="edgeStyle=none;curved=1;rounded=0;orthogonalLoop=1;jettySize=auto;html=1;fontSize=12;startSize=8;endSize=8;" edge="1" parent="1" source="pg69pMdYcmg80Zj4JfqQ-23" target="pg69pMdYcmg80Zj4JfqQ-26">
          <mxGeometry relative="1" as="geometry" />
        </mxCell>
        <mxCell id="pg69pMdYcmg80Zj4JfqQ-23" value="Durable Functions" style="shape=image;verticalLabelPosition=bottom;labelBackgroundColor=#ffffff;verticalAlign=top;aspect=fixed;imageAspect=0;image=data:image/svg+xml,PHN2ZyB4bWxuczpkYz0iaHR0cDovL3B1cmwub3JnL2RjL2VsZW1lbnRzLzEuMS8iIHhtbG5zOmNjPSJodHRwOi8vY3JlYXRpdmVjb21tb25zLm9yZy9ucyMiIHhtbG5zOnJkZj0iaHR0cDovL3d3dy53My5vcmcvMTk5OS8wMi8yMi1yZGYtc3ludGF4LW5zIyIgeG1sbnM6c3ZnPSJodHRwOi8vd3d3LnczLm9yZy8yMDAwL3N2ZyIgeG1sbnM9Imh0dHA6Ly93d3cudzMub3JnLzIwMDAvc3ZnIiB4bWxuczpzb2RpcG9kaT0iaHR0cDovL3NvZGlwb2RpLnNvdXJjZWZvcmdlLm5ldC9EVEQvc29kaXBvZGktMC5kdGQiIHhtbG5zOmlua3NjYXBlPSJodHRwOi8vd3d3Lmlua3NjYXBlLm9yZy9uYW1lc3BhY2VzL2lua3NjYXBlIiB2ZXJzaW9uPSIxLjEiIGlkPSJzdmcyNjE4OCIgeD0iMHB4IiB5PSIwcHgiIHZpZXdCb3g9IjAgMCA1Ny4zMDk5MyA1Mi44MTk5OTkiIHhtbDpzcGFjZT0icHJlc2VydmUiIHNvZGlwb2RpOmRvY25hbWU9ImF6dXJlX2Z1bmN0aW9ucy5zdmciIHdpZHRoPSI1Ny4zMDk5MjkiIGhlaWdodD0iNTIuODIiIGlua3NjYXBlOnZlcnNpb249IjAuOTIuMyAoMjQwNTU0NiwgMjAxOC0wMy0xMSkiPjxtZXRhZGF0YSBpZD0ibWV0YWRhdGE0MTk3MTciPjxyZGY6UkRGPjxjYzpXb3JrIHJkZjphYm91dD0iIj48ZGM6Zm9ybWF0PmltYWdlL3N2Zyt4bWw8L2RjOmZvcm1hdD48ZGM6dHlwZSByZGY6cmVzb3VyY2U9Imh0dHA6Ly9wdXJsLm9yZy9kYy9kY21pdHlwZS9TdGlsbEltYWdlIi8+PGRjOnRpdGxlLz48L2NjOldvcms+PC9yZGY6UkRGPjwvbWV0YWRhdGE+PGRlZnMgaWQ9ImRlZnM0MTk3MTUiPiYjeGE7CSYjeGE7CSYjeGE7JiN4YTsJCSYjeGE7CQkmI3hhOwkJJiN4YTsJCSYjeGE7CQkmI3hhOwkmI3hhOwkJCSYjeGE7CQkJJiN4YTsJCQkmI3hhOwkJCQkmI3hhOwkJJiN4YTsJCQkmI3hhOwkJCSYjeGE7CQkJJiN4YTsJCSYjeGE7CQkJJiN4YTsJCQkmI3hhOwkJCSYjeGE7CQkmI3hhOwkJCSYjeGE7CQkJJiN4YTsJCQkmI3hhOwkJPC9kZWZzPiYjeGE7PGZpbHRlciBpZD0iZmlsdGVyXzIiPiYjeGE7CTxmZUdhdXNzaWFuQmx1ciBpZD0iZmVHYXVzc2lhbkJsdXIyNjE0NSIgc3RkRGV2aWF0aW9uPSIyIi8+JiN4YTs8L2ZpbHRlcj4mI3hhOzxzb2RpcG9kaTpuYW1lZHZpZXcgYm9yZGVyY29sb3I9IiM2NjY2NjYiIGJvcmRlcm9wYWNpdHk9IjEiIGZpdC1tYXJnaW4tYm90dG9tPSIwIiBmaXQtbWFyZ2luLWxlZnQ9IjAiIGZpdC1tYXJnaW4tcmlnaHQ9IjAiIGZpdC1tYXJnaW4tdG9wPSIwIiBncmlkdG9sZXJhbmNlPSIxMCIgZ3VpZGV0b2xlcmFuY2U9IjEwIiBpZD0ibmFtZWR2aWV3MjYxOTAiIGlua3NjYXBlOmN1cnJlbnQtbGF5ZXI9InN2ZzI2MTg4IiBpbmtzY2FwZTpjeD0iOS4zODYxNjQ5IiBpbmtzY2FwZTpjeT0iMTguMTA2MzA2IiBpbmtzY2FwZTpwYWdlb3BhY2l0eT0iMCIgaW5rc2NhcGU6cGFnZXNoYWRvdz0iMiIgaW5rc2NhcGU6d2luZG93LWhlaWdodD0iMTAxNyIgaW5rc2NhcGU6d2luZG93LW1heGltaXplZD0iMSIgaW5rc2NhcGU6d2luZG93LXdpZHRoPSIxOTIwIiBpbmtzY2FwZTp3aW5kb3cteD0iLTgiIGlua3NjYXBlOndpbmRvdy15PSItOCIgaW5rc2NhcGU6em9vbT0iOS4wMzkyMDQ2IiBvYmplY3R0b2xlcmFuY2U9IjEwIiBwYWdlY29sb3I9IiNmZmZmZmYiIHNob3dncmlkPSJmYWxzZSI+JiN4YTsJPC9zb2RpcG9kaTpuYW1lZHZpZXc+JiN4YTs8cGF0aCBkPSJtIDU2LjkzNzkxNCwyNi43NjYyIGMgMC41NCwtMC41MyAwLjQ1LC0xLjUyIDAsLTIuMDYgbCAtMi43NywtMi43NyAtMTIuMzYsLTEyIGMgLTAuNTMsLTAuNTMgLTEuMzQsLTAuNTMgLTEuOTYsMCAtMC41NCwwLjU0IC0wLjcyLDEuNTMgMCwyLjA2IGwgMTIuOTcsMTIuNzEgYyAwLjU0LDAuNTQgMC41NCwxLjUzIDAsMi4wNiBsIC0xMy4yNCwxMy4xNiBjIC0wLjU0LDAuNTQgLTAuNTQsMS41MiAwLDIuMDYgMC41MywwLjU0IDEuNTIsMC40NSAxLjk3LDAgbCAxMi4yNiwtMTIuMTcgYyAwLDAgMCwwIDAuMDksLTAuMDkgeiIgc3R5bGU9ImNsaXAtcnVsZTpldmVub2RkO2ZpbGw6IzM5OTljNjtmaWxsLXJ1bGU6ZXZlbm9kZCIgaW5rc2NhcGU6Y29ubmVjdG9yLWN1cnZhdHVyZT0iMCIgaWQ9InBhdGgyNjE1OCIvPjxwYXRoIGQ9Im0gMC4zNzIwMTM5LDI2Ljc2NjIgYyAtMC41NCwtMC41MyAtMC40NSwtMS41MiAwLC0yLjA2IGwgMi43NywtMi43NyAxMi4zNTAwMDAxLC0xMiBjIDAuNTQsLTAuNTMgMS4zNSwtMC41MyAxLjk3LDAgMC41NCwwLjU0IDAuNzIsMS41MyAwLDIuMDYgbCAtMTIuNzEwMDAwMSwxMi43MSBjIC0wLjUzLDAuNTQgLTAuNTMsMS41MyAwLDIuMDYgbCAxMi45ODAwMDAxLDEzLjE2IGMgMC41NCwwLjU0IDAuNTQsMS41MiAwLDIuMDYgLTAuNTMsMC41NCAtMS41MiwwLjQ1IC0xLjk3LDAgTCAzLjIzMjAxMzksMjkuOTk2MiBjIDAsMCAwLDAgLTAuMDksLTAuMDkgeiIgc3R5bGU9ImNsaXAtcnVsZTpldmVub2RkO2ZpbGw6IzM5OTljNjtmaWxsLXJ1bGU6ZXZlbm9kZCIgaW5rc2NhcGU6Y29ubmVjdG9yLWN1cnZhdHVyZT0iMCIgaWQ9InBhdGgyNjE2NiIvPjxwYXRoIGQ9Im0gNDIuNjE1MDE0LDAgaCAtMTcuNDUgbCAtOS40LDI2LjUgMTEuNDYsMC4wOSAtOC45NSwyNi4yMyAyNC43LC0zNSBoIC0xMS45OSB6IiBzdHlsZT0iY2xpcC1ydWxlOmV2ZW5vZGQ7ZmlsbDojZmNkMTE2O2ZpbGwtcnVsZTpldmVub2RkIiBpbmtzY2FwZTpjb25uZWN0b3ItY3VydmF0dXJlPSIwIiBpZD0icGF0aDI2MTc0Ii8+PHBhdGggZD0iTSAzMC45ODEzMTQsMTcuODIgNDIuNjIxMzE0LDAgaCAtOS4xMyBsIC05LjY3LDIyLjAyIDExLjQ2LDAuMDkgLTE3LjAxLDMwLjcxIDI0LjcxLC0zNSB6IiBzdHlsZT0iY2xpcC1ydWxlOmV2ZW5vZGQ7ZmlsbDojZmY4YzAwO2ZpbGwtb3BhY2l0eTowLjM7ZmlsbC1ydWxlOmV2ZW5vZGQiIGlua3NjYXBlOmNvbm5lY3Rvci1jdXJ2YXR1cmU9IjAiIGlkPSJwYXRoMjYxODIiLz4mI3hhOzwvc3ZnPg==;" vertex="1" parent="1">
          <mxGeometry x="360" y="196" width="64.53" height="60" as="geometry" />
        </mxCell>
        <mxCell id="pg69pMdYcmg80Zj4JfqQ-32" style="edgeStyle=none;curved=1;rounded=0;orthogonalLoop=1;jettySize=auto;html=1;entryX=0;entryY=0.5;entryDx=0;entryDy=0;fontSize=12;startSize=8;endSize=8;" edge="1" parent="1" source="pg69pMdYcmg80Zj4JfqQ-24" target="pg69pMdYcmg80Zj4JfqQ-3">
          <mxGeometry relative="1" as="geometry" />
        </mxCell>
        <mxCell id="pg69pMdYcmg80Zj4JfqQ-24" value="Store extracted content" style="image;aspect=fixed;html=1;points=[];align=center;fontSize=12;image=img/lib/azure2/storage/Storage_Accounts.svg;" vertex="1" parent="1">
          <mxGeometry x="360" y="-14" width="65" height="52" as="geometry" />
        </mxCell>
        <mxCell id="pg69pMdYcmg80Zj4JfqQ-30" style="edgeStyle=none;curved=1;rounded=0;orthogonalLoop=1;jettySize=auto;html=1;fontSize=12;startSize=8;endSize=8;" edge="1" parent="1" source="pg69pMdYcmg80Zj4JfqQ-26" target="pg69pMdYcmg80Zj4JfqQ-24">
          <mxGeometry relative="1" as="geometry" />
        </mxCell>
        <mxCell id="pg69pMdYcmg80Zj4JfqQ-26" value="Document intelligence" style="image;aspect=fixed;html=1;points=[];align=center;fontSize=12;image=img/lib/azure2/ai_machine_learning/Form_Recognizers.svg;" vertex="1" parent="1">
          <mxGeometry x="363" y="86" width="63.2" height="68" as="geometry" />
        </mxCell>
        <mxCell id="pg69pMdYcmg80Zj4JfqQ-28" value="" style="endArrow=classic;startArrow=classic;html=1;rounded=0;fontSize=12;startSize=8;endSize=8;curved=1;entryX=0.498;entryY=0.968;entryDx=0;entryDy=0;entryPerimeter=0;" edge="1" parent="1" source="pg69pMdYcmg80Zj4JfqQ-17" target="pg69pMdYcmg80Zj4JfqQ-20">
          <mxGeometry width="50" height="50" relative="1" as="geometry">
            <mxPoint x="370" y="430" as="sourcePoint" />
            <mxPoint x="420" y="380" as="targetPoint" />
          </mxGeometry>
        </mxCell>
        <mxCell id="pg69pMdYcmg80Zj4JfqQ-35" style="edgeStyle=none;curved=1;rounded=0;orthogonalLoop=1;jettySize=auto;html=1;entryX=0.465;entryY=0.575;entryDx=0;entryDy=0;entryPerimeter=0;fontSize=12;startSize=8;endSize=8;" edge="1" parent="1" source="pg69pMdYcmg80Zj4JfqQ-4" target="pg69pMdYcmg80Zj4JfqQ-8">
          <mxGeometry relative="1" as="geometry" />
        </mxCell>
        <mxCell id="pg69pMdYcmg80Zj4JfqQ-40" style="edgeStyle=none;curved=1;rounded=0;orthogonalLoop=1;jettySize=auto;html=1;fontSize=12;startSize=8;endSize=8;" edge="1" source="pg69pMdYcmg80Zj4JfqQ-41" target="pg69pMdYcmg80Zj4JfqQ-42" parent="1">
          <mxGeometry relative="1" as="geometry">
            <mxPoint x="754.5462037037039" y="85" as="targetPoint" />
          </mxGeometry>
        </mxCell>
        <mxCell id="pg69pMdYcmg80Zj4JfqQ-41" value="Format for Braile" style="shape=image;verticalLabelPosition=bottom;labelBackgroundColor=#ffffff;verticalAlign=top;aspect=fixed;imageAspect=0;image=data:image/svg+xml,PHN2ZyB4bWxuczpkYz0iaHR0cDovL3B1cmwub3JnL2RjL2VsZW1lbnRzLzEuMS8iIHhtbG5zOmNjPSJodHRwOi8vY3JlYXRpdmVjb21tb25zLm9yZy9ucyMiIHhtbG5zOnJkZj0iaHR0cDovL3d3dy53My5vcmcvMTk5OS8wMi8yMi1yZGYtc3ludGF4LW5zIyIgeG1sbnM6c3ZnPSJodHRwOi8vd3d3LnczLm9yZy8yMDAwL3N2ZyIgeG1sbnM9Imh0dHA6Ly93d3cudzMub3JnLzIwMDAvc3ZnIiB4bWxuczpzb2RpcG9kaT0iaHR0cDovL3NvZGlwb2RpLnNvdXJjZWZvcmdlLm5ldC9EVEQvc29kaXBvZGktMC5kdGQiIHhtbG5zOmlua3NjYXBlPSJodHRwOi8vd3d3Lmlua3NjYXBlLm9yZy9uYW1lc3BhY2VzL2lua3NjYXBlIiB2ZXJzaW9uPSIxLjEiIGlkPSJzdmcyNjE4OCIgeD0iMHB4IiB5PSIwcHgiIHZpZXdCb3g9IjAgMCA1Ny4zMDk5MyA1Mi44MTk5OTkiIHhtbDpzcGFjZT0icHJlc2VydmUiIHNvZGlwb2RpOmRvY25hbWU9ImF6dXJlX2Z1bmN0aW9ucy5zdmciIHdpZHRoPSI1Ny4zMDk5MjkiIGhlaWdodD0iNTIuODIiIGlua3NjYXBlOnZlcnNpb249IjAuOTIuMyAoMjQwNTU0NiwgMjAxOC0wMy0xMSkiPjxtZXRhZGF0YSBpZD0ibWV0YWRhdGE0MTk3MTciPjxyZGY6UkRGPjxjYzpXb3JrIHJkZjphYm91dD0iIj48ZGM6Zm9ybWF0PmltYWdlL3N2Zyt4bWw8L2RjOmZvcm1hdD48ZGM6dHlwZSByZGY6cmVzb3VyY2U9Imh0dHA6Ly9wdXJsLm9yZy9kYy9kY21pdHlwZS9TdGlsbEltYWdlIi8+PGRjOnRpdGxlLz48L2NjOldvcms+PC9yZGY6UkRGPjwvbWV0YWRhdGE+PGRlZnMgaWQ9ImRlZnM0MTk3MTUiPiYjeGE7CSYjeGE7CSYjeGE7JiN4YTsJCSYjeGE7CQkmI3hhOwkJJiN4YTsJCSYjeGE7CQkmI3hhOwkmI3hhOwkJCSYjeGE7CQkJJiN4YTsJCQkmI3hhOwkJCQkmI3hhOwkJJiN4YTsJCQkmI3hhOwkJCSYjeGE7CQkJJiN4YTsJCSYjeGE7CQkJJiN4YTsJCQkmI3hhOwkJCSYjeGE7CQkmI3hhOwkJCSYjeGE7CQkJJiN4YTsJCQkmI3hhOwkJPC9kZWZzPiYjeGE7PGZpbHRlciBpZD0iZmlsdGVyXzIiPiYjeGE7CTxmZUdhdXNzaWFuQmx1ciBpZD0iZmVHYXVzc2lhbkJsdXIyNjE0NSIgc3RkRGV2aWF0aW9uPSIyIi8+JiN4YTs8L2ZpbHRlcj4mI3hhOzxzb2RpcG9kaTpuYW1lZHZpZXcgYm9yZGVyY29sb3I9IiM2NjY2NjYiIGJvcmRlcm9wYWNpdHk9IjEiIGZpdC1tYXJnaW4tYm90dG9tPSIwIiBmaXQtbWFyZ2luLWxlZnQ9IjAiIGZpdC1tYXJnaW4tcmlnaHQ9IjAiIGZpdC1tYXJnaW4tdG9wPSIwIiBncmlkdG9sZXJhbmNlPSIxMCIgZ3VpZGV0b2xlcmFuY2U9IjEwIiBpZD0ibmFtZWR2aWV3MjYxOTAiIGlua3NjYXBlOmN1cnJlbnQtbGF5ZXI9InN2ZzI2MTg4IiBpbmtzY2FwZTpjeD0iOS4zODYxNjQ5IiBpbmtzY2FwZTpjeT0iMTguMTA2MzA2IiBpbmtzY2FwZTpwYWdlb3BhY2l0eT0iMCIgaW5rc2NhcGU6cGFnZXNoYWRvdz0iMiIgaW5rc2NhcGU6d2luZG93LWhlaWdodD0iMTAxNyIgaW5rc2NhcGU6d2luZG93LW1heGltaXplZD0iMSIgaW5rc2NhcGU6d2luZG93LXdpZHRoPSIxOTIwIiBpbmtzY2FwZTp3aW5kb3cteD0iLTgiIGlua3NjYXBlOndpbmRvdy15PSItOCIgaW5rc2NhcGU6em9vbT0iOS4wMzkyMDQ2IiBvYmplY3R0b2xlcmFuY2U9IjEwIiBwYWdlY29sb3I9IiNmZmZmZmYiIHNob3dncmlkPSJmYWxzZSI+JiN4YTsJPC9zb2RpcG9kaTpuYW1lZHZpZXc+JiN4YTs8cGF0aCBkPSJtIDU2LjkzNzkxNCwyNi43NjYyIGMgMC41NCwtMC41MyAwLjQ1LC0xLjUyIDAsLTIuMDYgbCAtMi43NywtMi43NyAtMTIuMzYsLTEyIGMgLTAuNTMsLTAuNTMgLTEuMzQsLTAuNTMgLTEuOTYsMCAtMC41NCwwLjU0IC0wLjcyLDEuNTMgMCwyLjA2IGwgMTIuOTcsMTIuNzEgYyAwLjU0LDAuNTQgMC41NCwxLjUzIDAsMi4wNiBsIC0xMy4yNCwxMy4xNiBjIC0wLjU0LDAuNTQgLTAuNTQsMS41MiAwLDIuMDYgMC41MywwLjU0IDEuNTIsMC40NSAxLjk3LDAgbCAxMi4yNiwtMTIuMTcgYyAwLDAgMCwwIDAuMDksLTAuMDkgeiIgc3R5bGU9ImNsaXAtcnVsZTpldmVub2RkO2ZpbGw6IzM5OTljNjtmaWxsLXJ1bGU6ZXZlbm9kZCIgaW5rc2NhcGU6Y29ubmVjdG9yLWN1cnZhdHVyZT0iMCIgaWQ9InBhdGgyNjE1OCIvPjxwYXRoIGQ9Im0gMC4zNzIwMTM5LDI2Ljc2NjIgYyAtMC41NCwtMC41MyAtMC40NSwtMS41MiAwLC0yLjA2IGwgMi43NywtMi43NyAxMi4zNTAwMDAxLC0xMiBjIDAuNTQsLTAuNTMgMS4zNSwtMC41MyAxLjk3LDAgMC41NCwwLjU0IDAuNzIsMS41MyAwLDIuMDYgbCAtMTIuNzEwMDAwMSwxMi43MSBjIC0wLjUzLDAuNTQgLTAuNTMsMS41MyAwLDIuMDYgbCAxMi45ODAwMDAxLDEzLjE2IGMgMC41NCwwLjU0IDAuNTQsMS41MiAwLDIuMDYgLTAuNTMsMC41NCAtMS41MiwwLjQ1IC0xLjk3LDAgTCAzLjIzMjAxMzksMjkuOTk2MiBjIDAsMCAwLDAgLTAuMDksLTAuMDkgeiIgc3R5bGU9ImNsaXAtcnVsZTpldmVub2RkO2ZpbGw6IzM5OTljNjtmaWxsLXJ1bGU6ZXZlbm9kZCIgaW5rc2NhcGU6Y29ubmVjdG9yLWN1cnZhdHVyZT0iMCIgaWQ9InBhdGgyNjE2NiIvPjxwYXRoIGQ9Im0gNDIuNjE1MDE0LDAgaCAtMTcuNDUgbCAtOS40LDI2LjUgMTEuNDYsMC4wOSAtOC45NSwyNi4yMyAyNC43LC0zNSBoIC0xMS45OSB6IiBzdHlsZT0iY2xpcC1ydWxlOmV2ZW5vZGQ7ZmlsbDojZmNkMTE2O2ZpbGwtcnVsZTpldmVub2RkIiBpbmtzY2FwZTpjb25uZWN0b3ItY3VydmF0dXJlPSIwIiBpZD0icGF0aDI2MTc0Ii8+PHBhdGggZD0iTSAzMC45ODEzMTQsMTcuODIgNDIuNjIxMzE0LDAgaCAtOS4xMyBsIC05LjY3LDIyLjAyIDExLjQ2LDAuMDkgLTE3LjAxLDMwLjcxIDI0LjcxLC0zNSB6IiBzdHlsZT0iY2xpcC1ydWxlOmV2ZW5vZGQ7ZmlsbDojZmY4YzAwO2ZpbGwtb3BhY2l0eTowLjM7ZmlsbC1ydWxlOmV2ZW5vZGQiIGlua3NjYXBlOmNvbm5lY3Rvci1jdXJ2YXR1cmU9IjAiIGlkPSJwYXRoMjYxODIiLz4mI3hhOzwvc3ZnPg==;" vertex="1" parent="1">
          <mxGeometry x="723.47" y="-19" width="64.53" height="60" as="geometry" />
        </mxCell>
        <mxCell id="pg69pMdYcmg80Zj4JfqQ-46" style="edgeStyle=none;curved=1;rounded=0;orthogonalLoop=1;jettySize=auto;html=1;fontSize=12;startSize=8;endSize=8;" edge="1" parent="1" source="pg69pMdYcmg80Zj4JfqQ-42" target="pg69pMdYcmg80Zj4JfqQ-9">
          <mxGeometry relative="1" as="geometry" />
        </mxCell>
        <mxCell id="pg69pMdYcmg80Zj4JfqQ-42" value="Store results" style="image;aspect=fixed;html=1;points=[];align=center;fontSize=12;image=img/lib/azure2/storage/Storage_Accounts.svg;" vertex="1" parent="1">
          <mxGeometry x="720" y="93.5" width="65" height="52" as="geometry" />
        </mxCell>
      </root>
    </mxGraphModel>
  </diagram>
</mxfile>
